<svg xmlns="http://www.w3.org/2000/svg" width="{{ .width }}" height="{{ .height }}" viewBox="0 0 24 24"><path fill="none" d="M24 0H0v24h24V0z"/><path fill="currentColor" d="m11.987 1.4257a0.82544 0.82544 0 0 0-0.81246 0.83826v2.9097a0.82544 0.82544 0 1 0 1.6507 0v-2.9097a0.82544 0.82544 0 0 0-0.83826-0.83826zm-6.8753 2.8597a0.82544 0.82544 0 0 0-0.5755 1.4186l2.057 2.0553a0.82544 0.82544 0 1 0 1.1671-1.1671l-2.057-2.0553a0.82544 0.82544 0 0 0-0.59162-0.25148zm13.752 0.00161a0.82544 0.82544 0 0 0-0.56744 0.24986l-2.0553 2.0553a0.82544 0.82544 0 1 0 1.1671 1.1671l2.0553-2.0553a0.82544 0.82544 0 0 0-0.59968-1.417zm-16.601 6.8882a0.82544 0.82544 0 1 0 0 1.6507h2.9097a0.82544 0.82544 0 1 0 0-1.6507zm16.564 0a0.82544 0.82544 0 1 0 0 1.6507h2.9097a0.82544 0.82544 0 1 0 0-1.6507zm-11.668 4.8151a0.82544 0.82544 0 0 0-0.56744 0.24986l-2.057 2.057a0.82584 0.82584 0 1 0 1.1671 1.1687l2.057-2.0586a0.82544 0.82544 0 0 0-0.59968-1.417zm9.6561 0a0.82544 0.82544 0 0 0-0.57388 1.417l2.0553 2.0553a0.82544 0.82544 0 1 0 1.1671-1.1671l-2.0553-2.0553a0.82544 0.82544 0 0 0-0.59323-0.24986zm-4.828 1.9989a0.82544 0.82544 0 0 0-0.81246 0.83664v2.9097a0.82544 0.82544 0 1 0 1.6507 0v-2.9097a0.82544 0.82544 0 0 0-0.83826-0.83664zm0.0129-11.362a5.3718 5.3718 0 0 0-5.3713 5.3729 5.3718 5.3718 0 0 0 5.3713 5.3713 5.3718 5.3718 0 0 0 5.3713-5.3713 5.3718 5.3718 0 0 0-5.3713-5.3729zm0 1.5105v7.7232a3.861 3.861 0 0 1-3.8608-3.8608 3.861 3.861 0 0 1 3.8608-3.8624z"/></svg>