<svg xmlns="http://www.w3.org/2000/svg" fill="#000000" viewBox="0 0 30 30" width="{{ .width }}" height="{{ .height }}"><path fill="currentColor" d="m6.2104 4.4363c-1.0373 0.61588-3.0809 2.9636-3.1002 3.5793v1.0191c0 1.2919 1.2076 2.4273 2.3039 2.4273 1.3164 0 2.4133-1.0911 2.4134-2.386 0 1.2949 1.0593 2.386 2.3758 2.386 1.3166 0 2.3419-1.0911 2.3419-2.386 0 1.2949 1.1263 2.386 2.4429 2.386h0.02384c1.3166 0 2.4429-1.0911 2.4429-2.386 0 1.2949 1.0253 2.386 2.3418 2.386 1.3165 0 2.3758-1.0911 2.3758-2.386 0 1.2949 1.0971 2.386 2.4134 2.386 1.0964 0 2.3039-1.1353 2.3039-2.4273v-1.0191c-0.0194-0.61579-2.063-2.9636-3.1-3.5793-3.2239-0.11319-5.4589-0.13277-8.7898-0.13229-3.3309 2.723e-4 -7.872 0.052334-8.7897 0.13229zm6.3181 6.4173a2.716 2.716 0 0 1-0.46325 0.5965c-0.49696 0.48593-1.1782 0.78713-1.9292 0.78713a2.7603 2.7603 0 0 1-1.9332-0.78752c-0.18007-0.17638-0.31691-0.36497-0.44222-0.58458l-5.82e-4 3.92e-4c-0.12521 0.21999-0.29966 0.40849-0.48011 0.58507a2.762 2.762 0 0 1-1.9332 0.78693c-0.090519 0-0.18471-0.02501-0.2609-0.05117-0.10582 1.1021-0.1505 2.1553-0.1663 2.9233l-1.873e-4 0.0043c-0.00191 0.38998-0.00373 0.71066-0.00564 1.1561 0.020334 2.3124-0.229 7.4947 1.0195 8.768 1.9348 0.45113 5.4949 0.65658 9.0666 0.65784h5.45e-4c3.5716-0.0013 7.1318-0.20671 9.0665-0.65784 1.2485-1.2734 0.99917-6.4557 1.0195-8.7681-0.0019-0.44542-0.0037-0.76609-0.0056-1.1561l-2.75e-4 -0.0043c-0.01571-0.76813-0.06038-1.8213-0.16621-2.9234-0.07617 0.02617-0.17027 0.05117-0.26088 0.05117a2.762 2.762 0 0 1-1.9332-0.78693c-0.18044-0.17658-0.35489-0.36498-0.4802-0.58507l-5.44e-4 -3.9e-4c-0.1254 0.2196-0.26215 0.4083-0.44222 0.58458a2.7601 2.7601 0 0 1-1.9331 0.78742c-0.75089 0-1.4322-0.3014-1.9292-0.78722a2.716 2.716 0 0 1-0.46324-0.5965 2.7126 2.7126 0 0 1-0.45898 0.5965 2.761 2.761 0 0 1-1.9334 0.78732c-0.02616 0-0.05232-0.0012-0.07849-0.0019h-6.26e-4c-0.02616 7.51e-4 -0.05231 0.0019-0.07879 0.0019a2.761 2.761 0 0 1-1.9334-0.78723 2.7128 2.7128 0 0 1-0.45898-0.5965zm-1.9854 2.5672-1.82e-4 1e-3h0.0013c0.78625 0.0016 1.4847 0 2.3502 0.94451 0.6811-0.07143 1.3928-0.1071 2.1051-0.10602h5.45e-4c0.71231-1e-3 1.4241 0.0346 2.1053 0.10602 0.86543-0.94462 1.5638-0.94296 2.3502-0.94451h0.0013l-1.83e-4 -1e-3c0.37147 0 1.8574 0 2.8928 2.908l1.1121 3.9894c0.82415 2.9678-0.26389 3.0404-1.621 3.043-2.0127-0.07492-3.1271-1.5366-3.1271-2.998-1.1141 0.18258-2.4139 0.27388-3.7135 0.27397h-5.44e-4c-1.2998 0-2.5994-0.09139-3.7135-0.27397 0 1.4615-1.1145 2.9231-3.1271 2.998-1.3572-0.0026-2.4451-0.07511-1.6209-3.043l1.1125-3.9894c1.0354-2.908 2.5214-2.908 2.8928-2.908zm4.4565 2.2854v5.45e-4c-0.0019 0.0019-2.1188 1.946-2.4994 2.6375l1.3862-0.05553v1.2089c0 0.0566 0.55628 0.03353 1.1131 0.0078h5.45e-4c0.55666 0.02578 1.113 0.04885 1.113-0.0078v-1.2089l1.3862 0.05553c-0.38067-0.69147-2.4994-2.6375-2.4994-2.6375v-5.45e-4l-2.69e-4 1.82e-4z"/></svg>
