<svg xmlns="http://www.w3.org/2000/svg" fill="#000000" viewBox="0 0 30 30" width="{{ .width }}" height="{{ .height }}"><path fill="currentColor" d="m4 4.2049v21.59h22v-21.59zm0.94491 1.5134h8.6822v3.1299h-1.8604l-0.08835 0.11844v5.8769l6.2604-5.6996v-0.11844l-1.9487-0.59025v-2.717h9.0068v3.1299h-1.1811l-0.29513 0.08899-6.0491 5.165 5.4403 7.0888 0.20614 0.20614 1.9366 0.65939v2.2253l-8.9172-0.10627v-3.1305h1.2996l0.08898-0.11844-3.2489-4.9019-2.6574 2.7349-0.02112 1.9692 0.13892 0.08002 1.8604 1.1242 0.05954 2.2426h-8.5939l0.044173-2.5313 1.6984-0.59921 0.088346-0.11844v-11.635l-0.058897-0.11779-1.8905-0.73813z"/></svg>
