<svg xmlns="http://www.w3.org/2000/svg" xmlns:xlink="http://www.w3.org/1999/xlink" width="{{ .width }}" height="{{ .height }}" viewBox="0 0 24 24" version="1.1">
<g id="surface3680">
<path fill="currentColor" d="m6.6601 5.925 0.32307 1.6195h-6.3286c1.2676 3.0362 5.0146 3.3595 7.8642 3.5068l1.1757 3.1346h0.61956l0.3333 0.97331h-0.49279l-0.89765 2.9158h8.8191l-0.89765-2.9158h-0.49279l0.3333-0.97331h0.63592c0.62023-3.1525 2.3357-5.8575 5.6906-6.4226v-1.8382zm8.3835 1.2003c-1.3825 0.61521-1.0384 1.4141-0.79337 1.918 0.19587 0.40281 0.62866 0.71754 0.67068 1.1635 0.01188 0.12609-0.55534 0.02201-0.48461 0.5071 0.04685 0.32131 0.35745 0.34479 0.57254 0.31285 0.11213-0.01666 0.05738-0.22156 0.23719-0.24128 0.14231 0.1809-0.30808 0.9149-0.48665 1.2923-0.2325 0.49135 0.29075 0.81714 0.65637 0.4887 0.40563-0.36439 0.06194-0.95508 0.0777-1.1655 0.36331 0.13635 0.67479 0.81675 0.65637 1.3025-0.01921 0.50664-0.35464 1.0348-0.78519 1.3025-0.48455 0.3013-0.98251 0.0022-1.4559 0.6625-0.29076-0.39951-0.88211-0.68024-1.6154-0.81177-0.52861-0.09482-1.1905-0.8079-1.3414-1.4477-0.17186-0.72876 0.13684-1.3755 0.86903-1.6235-0.1658 0.59451-0.02469 1.1978 0.49279 1.3761 0.4674 0.1611 0.98982-0.58985 1.0122-1.0837 0.01083-0.23941-0.65214-0.69218-0.75247-1.1348-0.05188-0.22888-0.07426-0.47975 0.09815-0.69726 0.29568 0.31598 0.68887 0.51688 0.94877 0.30876 0.092-0.07367-0.55296-0.84186-0.31898-1.4191 0.25209-0.62189 1.1573-1.0262 1.7421-1.0101z "/>
</g>
</svg>
